<svg xmlns="http://www.w3.org/2000/svg" viewBox="0 0 44.47 9.94"><defs><style>.cls-1{fill:#fff;}</style></defs><title>edrWhite</title><g id="Layer_2" data-name="Layer 2"><g id="Layer_1-2" data-name="Layer 1"><path class="cls-1" d="M28.86.42A5.29,5.29,0,0,0,26.43,0H17.32l0,0-3.77,9.9H23l.26,0h.14a5.72,5.72,0,0,0,2.82-.78,5.07,5.07,0,0,0,1.93-2.65l1.13-3a4.71,4.71,0,0,0,.39-1.68h0A1.47,1.47,0,0,0,28.86.42Zm-3,3.82-.5,1.33a2.82,2.82,0,0,1-.92,1.37,2.52,2.52,0,0,1-1.47.34H17.41l1.95-4.7h5.41a2.17,2.17,0,0,1,1,.15.55.55,0,0,1,.3.55A2.81,2.81,0,0,1,25.82,4.24Z"/><path class="cls-1" d="M44.47,1.51A1.33,1.33,0,0,0,44,.39h0A2.72,2.72,0,0,0,42.52,0h-9.4L29.33,9.94h3.16l1-2.55h4.68a1.37,1.37,0,0,1,.65.12.4.4,0,0,1,.18.37,2.36,2.36,0,0,1-.19.79l-.49,1.27h3.15l.66-1.71a3.37,3.37,0,0,0,.25-1.14,1,1,0,0,0-.33-.8,1.64,1.64,0,0,0-.22-.14L41.54,6l.28-.1a3.36,3.36,0,0,0,2.07-2.29L44.13,3c0-.09.06-.18.08-.26l0-.15,0,0v0A3.55,3.55,0,0,0,44.47,1.51Zm-3.61,2h0l-.12.32a1.56,1.56,0,0,1-.52.75,1.59,1.59,0,0,1-.92.24H34.2l1-2.24h4.77a2.19,2.19,0,0,1,.8.09A.32.32,0,0,1,41,3,1.19,1.19,0,0,1,40.86,3.51Z"/><polygon class="cls-1" points="3.79 0 0 9.94 11.04 9.94 11.99 7.44 3.8 7.44 4.52 6.01 11.96 6.01 12.78 3.84 5.17 3.84 5.89 2.41 13.73 2.41 14.65 0 3.79 0"/></g></g></svg>