<svg xmlns="http://www.w3.org/2000/svg" viewBox="0 0 24.47 10.2"><defs><style>.cls-1{fill:#0075c9;}</style></defs><title>iqBlue</title><g id="Layer_2" data-name="Layer 2"><g id="Layer_1-2" data-name="Layer 1"><polygon class="cls-1" points="7.4 1.74 7.29 2.01 4.92 7.93 4.75 8.35 6.01 8.35 5.32 10.09 1.23 10.09 0.82 10.09 0 10.09 0.69 8.35 2.08 8.35 2.16 8.16 4.56 2.16 4.56 2.16 4.73 1.74 3.39 1.74 4.09 0 4.97 0 4.97 0 9.4 0 8.71 1.74 7.4 1.74"/><path class="cls-1" d="M22.8,6.58,24,3.5c.49-1.24.56-2.1.2-2.63s-1.3-.83-3-.83h-5c-2.66,0-4.55.6-5.75,3.61L9.32,6.74C8.83,8,8.76,8.83,9.12,9.36s1.3.84,3,.84h5a7.12,7.12,0,0,0,3.35-.65l.12-.06.84.64,1.82-1.78-.88-.74.09-.16A6,6,0,0,0,22.8,6.58ZM20.85,4.64,20.32,6l-2.27-1.9L16.22,5.88l2.13,1.76-.12.3H13.65c-.73,0-1.15-.14-1.36-.45s-.12-1.07.22-1.91L13,4.48c.55-1.36,1.23-2.2,3-2.2h3.63c.76,0,1.22.16,1.46.51S21.12,4,20.85,4.64Z"/></g></g></svg>