<svg xmlns="http://www.w3.org/2000/svg" viewBox="0 0 44.23 10.05"><defs><style>.cls-1{fill:#00953b;}</style></defs><title>proGreen</title><g id="Layer_2" data-name="Layer 2"><g id="Layer_1-2" data-name="Layer 1"><path class="cls-1" d="M9.91,7.5c2.58,0,3.7-2.41,4-3.15l.31-.83a4.61,4.61,0,0,0,.38-1.64A1.51,1.51,0,0,0,14,.58,3.56,3.56,0,0,0,11.9.11H3.75L0,9.94H3.12L4.05,7.5ZM5.77,2.66h4.45a1.25,1.25,0,0,1,.67.13.41.41,0,0,1,.19.36,1.42,1.42,0,0,1-.1.44L10.83,4A1.38,1.38,0,0,1,9.54,5H4.73Z"/><path class="cls-1" d="M28.51,3.08a4.08,4.08,0,0,0,.34-1.48A1.25,1.25,0,0,0,28.34.5h0a2.94,2.94,0,0,0-1.7-.39h-9L13.87,9.94H17l1-2.52H22.6a1.34,1.34,0,0,1,.63.12.4.4,0,0,1,.18.37,2.22,2.22,0,0,1-.19.77l-.48,1.26h3.12l.64-1.69a3.1,3.1,0,0,0,.26-1.12,1,1,0,0,0-.33-.8,1.2,1.2,0,0,0-.21-.13L26,6.06,26.23,6A3.3,3.3,0,0,0,28.28,3.7Zm-3.23.5-.12.32a1.47,1.47,0,0,1-.52.74,1.48,1.48,0,0,1-.9.24h-5l.94-2.22h4.72a2,2,0,0,1,.79.09.35.35,0,0,1,.24.34A1.33,1.33,0,0,1,25.28,3.58Z"/><path class="cls-1" d="M43.31.38h0A5.8,5.8,0,0,0,40.85,0H36.09a6.85,6.85,0,0,0-3.44.7,5.18,5.18,0,0,0-2.24,2.85l-1.1,2.9a5,5,0,0,0-.38,1.69,1.53,1.53,0,0,0,.93,1.52,5.57,5.57,0,0,0,2.45.39h4.77a6.9,6.9,0,0,0,3.44-.7A5.17,5.17,0,0,0,42.75,6.5l1.1-2.9a4.75,4.75,0,0,0,.38-1.69A1.56,1.56,0,0,0,43.31.38Zm-3,4.1-.4,1A3.47,3.47,0,0,1,39.05,7a2.19,2.19,0,0,1-1.5.43H34.13a1.91,1.91,0,0,1-1-.21.67.67,0,0,1-.28-.58,3.32,3.32,0,0,1,.26-1.06l.4-1a3.47,3.47,0,0,1,.87-1.47,2.19,2.19,0,0,1,1.5-.43h3.42a1.91,1.91,0,0,1,1,.21.66.66,0,0,1,.28.58A3.32,3.32,0,0,1,40.32,4.48Z"/></g></g></svg>