<svg xmlns="http://www.w3.org/2000/svg" xmlns:xlink="http://www.w3.org/1999/xlink" viewBox="0 0 15.98305 15.98305"><defs><style>.cls-1{fill:none;}.cls-2{clip-path:url(#clip-path);}.cls-3{fill:#999;}</style><clipPath id="clip-path"><rect class="cls-1" x="0.00014" y="0.00014" width="16" height="16"/></clipPath></defs><title>searchBarMagGlass</title><g id="Layer_2" data-name="Layer 2"><g id="Layer_1-2" data-name="Layer 1"><g class="cls-2"><g id="Search"><path id="Path_2" data-name="Path 2" class="cls-3" d="M2.00014,7.00014a4.951,4.951,0,0,1,4.90151-5q.04924-.00049.09849,0a4.951,4.951,0,0,1,5,4.90151q.00048.04924,0,.09849a4.951,4.951,0,0,1-4.90151,5q-.04924.00048-.09849,0a4.951,4.951,0,0,1-5-4.90151Q1.99965,7.04939,2.00014,7.00014Zm12.3,8.7a.99.99,0,0,0,1.4-1.4l-3.1-3.1a6.847,6.847,0,0,0,1.4-4.2,6.957,6.957,0,0,0-6.91374-7q-.04313-.00027-.08626,0a6.957,6.957,0,0,0-7,6.91373q-.00027.04312,0,.08627a6.957,6.957,0,0,0,6.91373,7q.04312.00026.08627,0a6.847,6.847,0,0,0,4.2-1.4Z"/></g></g></g></g></svg>