<?xml version="1.0" encoding="UTF-8" standalone="no"?>
<!DOCTYPE svg PUBLIC "-//W3C//DTD SVG 1.1//EN" "http://www.w3.org/Graphics/SVG/1.1/DTD/svg11.dtd">
<svg version="1.1" xmlns="http://www.w3.org/2000/svg" xmlns:xlink="http://www.w3.org/1999/xlink" preserveAspectRatio="xMidYMid meet" viewBox="0 0 100 53" width="100" height="53"><defs><path d="M45.44 39.4L22.64 52.56L-0.16 39.4L-0.16 13.07L22.64 -0.09L45.44 13.07L45.44 39.4ZM4.64 15.93L4.57 15.94L4.5 15.96L4.43 15.97L4.36 16L4.3 16.02L4.23 16.05L4.17 16.08L4.1 16.12L4.04 16.15L3.98 16.19L3.92 16.24L3.86 16.28L3.81 16.33L3.76 16.38L3.71 16.44L3.66 16.49L3.62 16.55L3.57 16.6L3.53 16.66L3.5 16.72L3.46 16.78L3.43 16.84L3.4 16.91L3.37 16.97L3.35 17.04L3.32 17.1L3.3 17.17L3.29 17.24L3.27 17.31L3.26 17.38L3.25 17.46L3.24 17.53L3.24 17.6L3.24 17.68L3.24 34.77L3.24 34.84L3.24 34.92L3.25 34.99L3.26 35.06L3.27 35.13L3.29 35.21L3.3 35.28L3.32 35.34L3.35 35.41L3.37 35.48L3.4 35.55L3.43 35.61L3.46 35.68L3.5 35.74L3.53 35.8L3.57 35.86L3.62 35.92L3.66 35.98L3.71 36.03L3.76 36.08L3.81 36.13L3.86 36.18L3.92 36.23L3.98 36.27L4.04 36.31L4.1 36.34L4.17 36.38L4.23 36.41L4.3 36.43L4.36 36.46L4.43 36.48L4.5 36.49L4.57 36.51L4.64 36.52L4.71 36.52L4.78 36.52L4.85 36.52L4.93 36.52L5 36.51L5.07 36.49L5.14 36.48L5.21 36.46L5.28 36.43L5.35 36.41L5.41 36.38L5.48 36.34L5.54 36.31L5.6 36.27L5.66 36.23L5.72 36.18L5.77 36.13L5.82 36.08L5.87 36.03L5.92 35.98L5.97 35.92L6.01 35.86L6.05 35.8L6.09 35.74L6.12 35.68L6.15 35.61L6.18 35.55L6.21 35.48L6.24 35.41L6.26 35.34L6.28 35.28L6.3 35.21L6.31 35.13L6.32 35.06L6.33 34.99L6.34 34.92L6.34 34.84L6.34 34.77L6.34 28.01L12.22 28.01L12.22 34.81L12.22 34.89L12.22 34.96L12.22 35.03L12.23 35.11L12.24 35.18L12.25 35.25L12.27 35.32L12.29 35.39L12.31 35.45L12.33 35.52L12.36 35.59L12.39 35.65L12.42 35.72L12.46 35.78L12.49 35.84L12.53 35.9L12.58 35.96L12.62 36.02L12.67 36.07L12.72 36.13L12.77 36.18L12.82 36.22L12.88 36.27L12.94 36.31L13 36.35L13.06 36.39L13.12 36.42L13.19 36.45L13.26 36.48L13.32 36.5L13.39 36.52L13.46 36.54L13.53 36.55L13.6 36.56L13.67 36.56L13.74 36.57L13.76 36.57L13.83 36.56L13.9 36.56L13.97 36.55L14.04 36.54L14.11 36.52L14.17 36.5L14.24 36.48L14.3 36.45L14.37 36.42L14.43 36.39L14.49 36.35L14.55 36.31L14.6 36.27L14.66 36.22L14.71 36.18L14.76 36.13L14.81 36.07L14.86 36.02L14.9 35.96L14.95 35.9L14.99 35.84L15.02 35.78L15.06 35.72L15.09 35.65L15.12 35.59L15.15 35.52L15.17 35.45L15.2 35.39L15.22 35.32L15.23 35.25L15.25 35.18L15.26 35.11L15.27 35.03L15.28 34.96L15.28 34.89L15.28 34.81L15.28 17.74L15.28 17.66L15.28 17.59L15.27 17.51L15.26 17.44L15.25 17.36L15.23 17.29L15.22 17.22L15.2 17.15L15.17 17.08L15.15 17.01L15.12 16.94L15.09 16.88L15.06 16.81L15.02 16.75L14.99 16.69L14.95 16.63L14.9 16.57L14.86 16.51L14.82 16.46L14.77 16.4L14.72 16.35L14.67 16.3L14.61 16.25L14.56 16.21L14.5 16.17L14.43 16.13L14.37 16.09L14.31 16.06L14.24 16.04L14.17 16.01L14.1 15.99L14.03 15.97L13.96 15.96L13.89 15.95L13.81 15.95L13.74 15.94L13.67 15.94L13.6 15.95L13.53 15.95L13.46 15.97L13.39 15.98L13.32 16L13.26 16.03L13.19 16.05L13.12 16.08L13.06 16.12L13 16.16L12.94 16.2L12.88 16.24L12.82 16.29L12.77 16.33L12.72 16.38L12.67 16.44L12.62 16.49L12.58 16.55L12.53 16.6L12.49 16.66L12.46 16.72L12.42 16.78L12.39 16.85L12.36 16.91L12.33 16.98L12.31 17.05L12.28 17.11L12.26 17.18L12.25 17.25L12.23 17.32L12.22 17.39L12.21 17.46L12.2 17.53L12.2 17.61L12.2 17.68L12.2 24.44L6.32 24.44L6.32 17.68L6.32 17.6L6.32 17.53L6.31 17.46L6.3 17.38L6.29 17.31L6.27 17.24L6.26 17.17L6.24 17.1L6.21 17.03L6.19 16.97L6.16 16.9L6.13 16.84L6.1 16.77L6.06 16.71L6.03 16.65L5.99 16.59L5.95 16.53L5.9 16.47L5.85 16.42L5.8 16.36L5.75 16.31L5.7 16.27L5.64 16.22L5.59 16.18L5.53 16.14L5.47 16.1L5.4 16.07L5.34 16.04L5.27 16.01L5.21 15.99L5.14 15.97L5.07 15.95L5 15.94L4.93 15.93L4.85 15.92L4.78 15.92L4.71 15.92L4.64 15.93ZM40.96 15.91L40.85 15.93L40.75 15.96L40.65 15.99L40.56 16.03L40.46 16.08L40.37 16.14L40.29 16.2L40.21 16.27L40.13 16.34L40.06 16.42L40 16.51L39.94 16.6L39.88 16.69L39.84 16.79L37.05 22.52L34.22 16.77L34.17 16.67L34.12 16.58L34.06 16.5L34 16.42L33.93 16.34L33.85 16.27L33.77 16.2L33.68 16.14L33.59 16.08L33.5 16.03L33.4 15.99L33.3 15.96L33.2 15.93L33.1 15.91L32.99 15.9L32.88 15.9L32.81 15.9L32.73 15.91L32.65 15.92L32.57 15.94L32.5 15.96L32.42 15.99L32.35 16.02L32.28 16.05L32.21 16.09L32.14 16.13L32.08 16.17L32.01 16.22L31.95 16.27L31.89 16.33L31.84 16.39L31.79 16.45L31.74 16.51L31.69 16.57L31.64 16.64L31.6 16.71L31.57 16.78L31.53 16.85L31.5 16.92L31.47 16.99L31.45 17.07L31.42 17.14L31.41 17.22L31.39 17.3L31.38 17.38L31.37 17.45L31.36 17.53L31.36 17.61L31.36 17.68L31.37 17.75L31.37 17.81L31.38 17.88L31.39 17.94L31.4 18.01L31.42 18.08L31.44 18.14L31.46 18.21L31.48 18.27L31.5 18.34L31.52 18.4L31.55 18.47L31.58 18.54L31.61 18.6L31.64 18.67L35.27 26.19L31.55 33.82L31.53 33.88L31.5 33.93L31.48 33.99L31.45 34.05L31.43 34.1L31.41 34.16L31.4 34.22L31.38 34.28L31.37 34.34L31.35 34.4L31.34 34.46L31.34 34.52L31.33 34.58L31.32 34.65L31.32 34.71L31.32 34.77L31.32 34.85L31.33 34.93L31.34 35.01L31.35 35.08L31.36 35.16L31.38 35.24L31.4 35.31L31.43 35.38L31.46 35.46L31.49 35.53L31.52 35.6L31.56 35.67L31.6 35.74L31.65 35.8L31.69 35.87L31.74 35.93L31.8 36L31.85 36.05L31.91 36.11L31.97 36.16L32.04 36.22L32.11 36.26L32.18 36.31L32.25 36.35L32.32 36.38L32.4 36.41L32.48 36.44L32.56 36.46L32.64 36.48L32.72 36.49L32.8 36.5L32.88 36.5L32.93 36.5L33.03 36.5L33.13 36.49L33.23 36.47L33.33 36.44L33.43 36.4L33.52 36.36L33.61 36.31L33.7 36.25L33.78 36.19L33.86 36.12L33.93 36.05L34 35.97L34.06 35.89L34.12 35.8L34.17 35.71L34.22 35.62L37.03 29.87L39.81 35.64L39.86 35.73L39.92 35.83L39.98 35.92L40.04 36L40.12 36.08L40.19 36.16L40.28 36.22L40.36 36.29L40.46 36.34L40.55 36.39L40.65 36.43L40.75 36.47L40.85 36.5L40.95 36.51L41.06 36.52L41.17 36.52L41.25 36.53L41.33 36.52L41.4 36.51L41.48 36.5L41.56 36.48L41.63 36.46L41.71 36.43L41.78 36.4L41.85 36.36L41.92 36.32L41.99 36.27L42.06 36.22L42.12 36.17L42.18 36.12L42.23 36.06L42.29 36L42.34 35.93L42.39 35.87L42.44 35.8L42.48 35.73L42.52 35.66L42.55 35.58L42.58 35.51L42.61 35.43L42.63 35.36L42.65 35.28L42.67 35.2L42.69 35.12L42.7 35.04L42.7 34.96L42.71 34.87L42.71 34.79L42.71 34.75L42.71 34.71L42.7 34.67L42.7 34.63L42.69 34.58L42.68 34.53L42.67 34.48L42.66 34.43L42.65 34.37L42.64 34.31L42.62 34.26L42.6 34.19L42.58 34.13L42.56 34.06L42.54 34L42.52 33.93L38.8 26.26L42.54 18.52L42.57 18.47L42.59 18.42L42.61 18.36L42.64 18.31L42.66 18.25L42.67 18.2L42.69 18.14L42.7 18.09L42.71 18.03L42.72 17.97L42.73 17.92L42.74 17.86L42.75 17.8L42.75 17.75L42.75 17.69L42.75 17.63L42.75 17.55L42.75 17.47L42.74 17.39L42.73 17.3L42.72 17.22L42.7 17.14L42.68 17.06L42.65 16.98L42.62 16.91L42.58 16.83L42.55 16.76L42.51 16.69L42.46 16.62L42.41 16.55L42.36 16.49L42.31 16.43L42.25 16.37L42.19 16.32L42.13 16.26L42.07 16.21L42 16.17L41.93 16.12L41.86 16.08L41.79 16.05L41.72 16.01L41.65 15.99L41.57 15.96L41.49 15.94L41.41 15.92L41.33 15.91L41.25 15.9L41.17 15.9L41.06 15.9L40.96 15.91ZM18.03 36.52L27.2 36.52L27.28 36.52L27.36 36.51L27.43 36.5L27.51 36.48L27.59 36.46L27.66 36.43L27.73 36.4L27.8 36.37L27.87 36.33L27.94 36.29L28.01 36.24L28.07 36.19L28.13 36.14L28.19 36.09L28.25 36.03L28.3 35.98L28.35 35.91L28.4 35.85L28.45 35.78L28.49 35.72L28.53 35.64L28.57 35.57L28.6 35.5L28.63 35.42L28.66 35.34L28.68 35.26L28.7 35.18L28.71 35.1L28.73 35.02L28.74 34.94L28.74 34.85L28.74 34.77L28.74 34.69L28.74 34.61L28.74 34.52L28.73 34.44L28.71 34.36L28.7 34.28L28.67 34.21L28.65 34.13L28.62 34.05L28.59 33.98L28.55 33.91L28.51 33.83L28.47 33.77L28.42 33.7L28.37 33.63L28.32 33.57L28.27 33.5L28.21 33.45L28.15 33.39L28.09 33.34L28.03 33.29L27.96 33.24L27.89 33.2L27.82 33.16L27.75 33.13L27.68 33.1L27.6 33.08L27.52 33.06L27.44 33.04L27.36 33.03L27.28 33.02L27.2 33.02L21.11 33.02L21.11 27.99L23.73 27.99L23.81 27.99L23.89 27.98L23.97 27.97L24.05 27.96L24.13 27.94L24.2 27.91L24.28 27.88L24.35 27.85L24.42 27.81L24.49 27.77L24.56 27.72L24.62 27.67L24.69 27.62L24.74 27.56L24.8 27.5L24.85 27.44L24.91 27.37L24.96 27.31L25 27.24L25.05 27.17L25.08 27.09L25.12 27.02L25.15 26.94L25.18 26.87L25.2 26.79L25.22 26.71L25.24 26.63L25.25 26.54L25.26 26.46L25.27 26.38L25.28 26.3L25.28 26.21L25.28 26.13L25.27 26.05L25.26 25.97L25.25 25.89L25.23 25.81L25.22 25.73L25.19 25.65L25.17 25.57L25.14 25.5L25.11 25.42L25.07 25.35L25.04 25.28L25 25.21L24.95 25.14L24.9 25.07L24.85 25.01L24.82 24.97L24.78 24.93L24.73 24.89L24.68 24.85L24.63 24.81L24.57 24.77L24.5 24.74L24.44 24.7L24.36 24.67L24.29 24.64L24.21 24.6L24.12 24.57L24.03 24.54L23.94 24.51L23.84 24.49L23.73 24.46L21.09 24.46L21.09 19.47L27.16 19.47L27.24 19.47L27.32 19.46L27.4 19.45L27.48 19.43L27.56 19.41L27.64 19.39L27.72 19.36L27.79 19.32L27.86 19.29L27.93 19.25L28 19.2L28.07 19.15L28.13 19.1L28.19 19.04L28.25 18.99L28.3 18.92L28.35 18.86L28.4 18.79L28.45 18.72L28.49 18.65L28.53 18.58L28.57 18.51L28.6 18.44L28.63 18.36L28.66 18.28L28.68 18.21L28.7 18.13L28.71 18.05L28.73 17.97L28.74 17.88L28.74 17.8L28.74 17.72L28.74 17.64L28.74 17.55L28.74 17.47L28.73 17.39L28.71 17.31L28.7 17.23L28.67 17.15L28.65 17.07L28.62 16.99L28.59 16.91L28.55 16.84L28.51 16.76L28.47 16.69L28.42 16.62L28.37 16.56L28.32 16.49L28.27 16.43L28.21 16.37L28.15 16.32L28.09 16.26L28.02 16.22L27.96 16.17L27.89 16.13L27.81 16.09L27.74 16.06L27.66 16.03L27.58 16L27.51 15.98L27.43 15.97L27.34 15.95L27.26 15.95L27.18 15.94L18.03 15.94L18.03 36.52Z" id="b9caFwdur"></path><path d="M56.86 15.34L57.16 15.39L57.44 15.47L57.72 15.57L57.99 15.69L58.26 15.83L58.51 16L58.76 16.19L59.01 16.4L59.24 16.63L59.47 16.88L59.68 17.15L59.88 17.42L60.05 17.7L60.21 18L60.35 18.3L60.47 18.62L60.57 18.94L60.65 19.27L60.71 19.62L60.76 19.97L60.79 20.33L60.8 20.7L60.8 21.85L60.79 22.24L60.75 22.63L60.7 23.01L60.62 23.37L60.52 23.73L60.4 24.07L60.26 24.4L60.1 24.73L59.91 25.04L59.71 25.35L59.48 25.64L59.23 25.93L59.48 26.22L59.71 26.51L59.91 26.82L60.1 27.13L60.26 27.46L60.4 27.8L60.52 28.14L60.62 28.49L60.7 28.85L60.75 29.22L60.79 29.6L60.8 29.99L60.8 31.18L60.79 31.55L60.76 31.91L60.71 32.25L60.65 32.59L60.57 32.93L60.47 33.25L60.35 33.56L60.21 33.87L60.05 34.17L59.88 34.45L59.68 34.73L59.47 35L59.25 35.25L59.01 35.49L58.77 35.7L58.52 35.88L58.27 36.05L58 36.19L57.73 36.31L57.45 36.41L57.16 36.49L56.86 36.55L56.56 36.58L56.25 36.59L49.28 36.59L49.28 15.29L56.25 15.29L56.56 15.3L56.86 15.34ZM51.55 33.88L56.16 33.88L56.61 33.83L57.03 33.68L57.41 33.43L57.77 33.08L57.99 32.76L58.18 32.34L58.33 31.81L58.46 31.18L58.46 30.06L58.42 29.52L58.29 29.01L58.08 28.56L57.79 28.14L57.44 27.79L57.06 27.54L56.63 27.39L56.18 27.34L51.55 27.34L51.55 33.88ZM51.53 24.52L56.16 24.52L56.61 24.47L57.03 24.32L57.41 24.07L57.77 23.72L57.99 23.41L58.17 22.98L58.32 22.46L58.43 21.82L58.43 20.72L58.39 20.18L58.27 19.68L58.06 19.22L57.77 18.8L57.42 18.45L57.03 18.21L56.61 18.06L56.16 18.01L51.53 18.01L51.53 24.52Z" id="a4MMwQHh6"></path><path d="M75.63 15.69C75.41 15.95 75.3 16.29 75.3 16.66C75.3 18.25 75.3 30.96 75.3 32.55C75.3 32.93 75.19 33.24 74.97 33.48C74.75 33.74 74.48 33.85 74.15 33.85C73.68 33.85 69.94 33.85 69.47 33.85C69.16 33.85 68.9 33.72 68.68 33.46C68.46 33.19 68.34 32.88 68.34 32.53C68.34 30.94 68.34 18.21 68.34 16.62C68.34 16.26 68.23 15.93 68.01 15.67C67.79 15.4 67.53 15.27 67.22 15.27C66.91 15.27 66.65 15.4 66.42 15.67C66.2 15.93 66.09 16.26 66.07 16.64C66.07 18.23 66.07 30.94 66.07 32.53C66.07 33.63 66.4 34.58 67.09 35.38C67.75 36.17 68.57 36.57 69.51 36.57C69.98 36.57 73.73 36.57 74.19 36.57C75.12 36.57 75.94 36.17 76.6 35.35C77.26 34.56 77.61 33.59 77.61 32.49C77.61 30.9 77.61 18.22 77.61 16.64C77.61 16.24 77.5 15.93 77.28 15.67C77.02 15.42 76.75 15.29 76.44 15.29C76.14 15.29 75.87 15.42 75.63 15.69Z" id="i2AWZSVlzS"></path><path d="M88.74 18.6C89 18.21 89.31 18.01 89.66 18.01C90.02 18.01 92.9 18.01 93.26 18.01C93.55 18.01 93.79 17.87 94.03 17.61C94.28 17.34 94.39 17.01 94.39 16.62C94.39 16.24 94.28 15.93 94.06 15.67C93.84 15.4 93.57 15.27 93.26 15.27C92.89 15.27 89.87 15.27 89.49 15.27C89.02 15.27 88.56 15.4 88.12 15.67C87.68 15.93 87.35 16.26 87.1 16.64C86.77 17.14 84.09 21.19 83.75 21.69C83.15 22.62 82.85 23.75 82.85 25.07C82.85 25.82 82.85 31.78 82.85 32.53C82.85 33.63 83.18 34.58 83.86 35.38C84.52 36.17 85.34 36.57 86.29 36.57C86.75 36.57 90.46 36.57 90.92 36.57C91.87 36.57 92.67 36.17 93.33 35.38C93.99 34.58 94.32 33.63 94.32 32.53C94.32 32.16 94.32 30.29 94.32 26.92C91.54 26.92 90 26.92 89.69 26.92C89.36 26.92 89.09 27.06 88.87 27.32C88.65 27.59 88.54 27.89 88.54 28.27C88.54 28.64 88.65 28.95 88.87 29.22C89.09 29.48 89.36 29.62 89.69 29.62C89.84 29.62 90.63 29.62 92.05 29.62C92.05 31.36 92.05 32.33 92.05 32.53C92.05 32.9 91.94 33.21 91.72 33.48C91.5 33.74 91.23 33.88 90.92 33.88C90.46 33.88 86.75 33.88 86.29 33.88C85.98 33.88 85.71 33.74 85.47 33.48C85.25 33.21 85.14 32.88 85.14 32.51C85.14 31.76 85.14 25.79 85.14 25.05C85.12 24.39 85.25 23.86 85.54 23.48C86.18 22.5 88.42 19.09 88.74 18.6Z" id="c3zBEq5VCe"></path><path d="M97.76 14.28L97.85 14.29L97.94 14.3L98.02 14.32L98.1 14.35L98.17 14.38L98.25 14.41L98.33 14.46L98.4 14.52L98.45 14.59L98.49 14.65L98.53 14.74L98.56 14.82L98.58 14.91L98.58 15.01L98.57 15.15L98.54 15.27L98.49 15.38L98.43 15.47L98.34 15.55L98.24 15.62L98.12 15.68L97.99 15.73L98.96 16.86L98.32 16.86L97.52 15.87L97.19 15.87L97.19 16.86L96.73 16.86L96.73 14.28L97.52 14.28L97.65 14.28L97.76 14.28ZM97.24 15.51L97.5 15.51L97.56 15.51L97.62 15.51L97.68 15.5L97.74 15.49L97.8 15.47L97.85 15.46L97.89 15.44L97.92 15.42L97.95 15.39L97.98 15.35L98.01 15.31L98.03 15.27L98.04 15.22L98.05 15.17L98.05 15.11L98.05 15.05L98.05 15L98.05 14.95L98.04 14.91L98.03 14.87L98.01 14.84L97.98 14.81L97.95 14.77L97.92 14.74L97.89 14.71L97.85 14.69L97.81 14.68L97.76 14.67L97.71 14.66L97.66 14.65L97.61 14.65L97.54 14.65L97.24 14.65L97.24 15.51Z" id="cVzhMRoEP"></path><path d="M98.53 13.37L98.94 13.6L99.31 13.9L99.62 14.28L99.84 14.7L99.97 15.14L100.02 15.62L99.97 16.11L99.84 16.56L99.62 16.97L99.31 17.34L98.94 17.65L98.53 17.87L98.09 18.01L97.61 18.05L97.12 18.01L96.68 17.87L96.27 17.65L95.89 17.34L95.58 16.96L95.36 16.55L95.23 16.1L95.18 15.62L95.22 15.13L95.35 14.69L95.57 14.28L95.89 13.9L96.27 13.6L96.68 13.37L97.12 13.24L97.61 13.2L98.09 13.24L98.53 13.37ZM96.81 13.66L96.46 13.85L96.13 14.12L95.86 14.45L95.67 14.81L95.55 15.21L95.51 15.62L95.55 16.05L95.67 16.44L95.86 16.8L96.13 17.12L96.45 17.4L96.8 17.59L97.19 17.7L97.61 17.74L98.02 17.7L98.41 17.59L98.76 17.4L99.09 17.12L99.35 16.8L99.55 16.44L99.67 16.05L99.71 15.62L99.67 15.2L99.55 14.81L99.35 14.45L99.09 14.12L98.77 13.85L98.42 13.66L98.03 13.54L97.61 13.5L97.2 13.54L96.81 13.66Z" id="a2aZ4tYOXP"></path></defs><g><g><g><use xlink:href="#b9caFwdur" opacity="1" fill="#ffffff" fill-opacity="1"></use><g><use xlink:href="#b9caFwdur" opacity="1" fill-opacity="0" stroke="#000000" stroke-width="1" stroke-opacity="0"></use></g></g><g><use xlink:href="#a4MMwQHh6" opacity="1" fill="#ffffff" fill-opacity="1"></use><g><use xlink:href="#a4MMwQHh6" opacity="1" fill-opacity="0" stroke="#000000" stroke-width="1" stroke-opacity="0"></use></g></g><g><use xlink:href="#i2AWZSVlzS" opacity="1" fill="#ffffff" fill-opacity="1"></use><g><use xlink:href="#i2AWZSVlzS" opacity="1" fill-opacity="0" stroke="#000000" stroke-width="1" stroke-opacity="0"></use></g></g><g><use xlink:href="#c3zBEq5VCe" opacity="1" fill="#ffffff" fill-opacity="1"></use><g><use xlink:href="#c3zBEq5VCe" opacity="1" fill-opacity="0" stroke="#000000" stroke-width="1" stroke-opacity="0"></use></g></g><g><use xlink:href="#cVzhMRoEP" opacity="1" fill="#ffffff" fill-opacity="1"></use><g><use xlink:href="#cVzhMRoEP" opacity="1" fill-opacity="0" stroke="#000000" stroke-width="1" stroke-opacity="0"></use></g></g><g><use xlink:href="#a2aZ4tYOXP" opacity="1" fill="#ffffff" fill-opacity="1"></use><g><use xlink:href="#a2aZ4tYOXP" opacity="1" fill-opacity="0" stroke="#000000" stroke-width="1" stroke-opacity="0"></use></g></g></g></g></svg>