<svg xmlns="http://www.w3.org/2000/svg" viewBox="0 0 824.07 124.08"><defs><style>.cls-1{fill:#fff;}</style></defs><title>edr-logo</title><g id="Layer_2" data-name="Layer 2"><g id="Homepage"><g id="Logos"><path class="cls-1" d="M429.55,124.08l33-86.52h94.55l-8.61,22.61H481.81a1.66,1.66,0,0,1-1.65-1.65h0a1.66,1.66,0,0,1,1.65-1.66h64.36l6.09-16H464.8l-30.44,79.89h89l6.36-16.68h-64.6a1.66,1.66,0,0,1-1.66-1.66h0a1.66,1.66,0,0,1,1.66-1.66h69.4l-8.88,23.31Z"/><path class="cls-1" d="M468.51,89.09a1.66,1.66,0,0,1,1.66-1.66h60.91l5.3-13.93H476.73a1.66,1.66,0,0,1-1.66-1.66h0a1.66,1.66,0,0,1,1.66-1.66h64.45l-7.82,20.55h-63.2a1.66,1.66,0,0,1-1.66-1.66Z"/><path class="cls-1" d="M553,124.08l32.55-85.45.41-1.07h78.13c9.42,0,16.32,1.09,21.12,3.73h0C690,43.9,692.5,48.43,692.44,54h0c0,4.19-1.2,9-3.36,14.72h0L679.45,94c-4,10.47-9.18,18.09-16.77,23h0c-7.59,4.91-17.36,7-30.28,7H553Zm4.8-3.31H632.4c12.58,0,21.65-2.07,28.48-6.5h0c6.82-4.43,11.62-11.29,15.48-21.4h0L686,67.58c2.09-5.48,3.15-10,3.14-13.54h0c-.06-4.77-1.66-7.64-5.52-9.85h0c-3.9-2.18-10.35-3.33-19.51-3.32H588.24l-30.44,79.89Z"/><path class="cls-1" d="M587.4,101a1.66,1.66,0,0,1,1.66-1.66h45.28c5.32,0,9-.76,11.89-2.74h0c2.89-2,5.22-5.36,7.42-11.14h0l4.29-11.26a23.43,23.43,0,0,0,1.89-7.77h0c-.07-2.13-.58-2.9-2-3.72h0c-1.45-.79-4.11-1.22-7.84-1.2H604.73a1.66,1.66,0,0,1-1.66-1.66h0a1.66,1.66,0,0,1,1.66-1.66H650c3.95,0,7,.35,9.4,1.59h0a7,7,0,0,1,3.74,6.64h0A26.4,26.4,0,0,1,661,75.43h0l-4.29,11.26c-2.31,6.06-4.95,10.15-8.64,12.69h0c-3.69,2.53-8.18,3.32-13.77,3.32H589.06A1.66,1.66,0,0,1,587.4,101Z"/><path class="cls-1" d="M769,124.08l4.67-12.24a19.25,19.25,0,0,0,1.56-6.25h0c-.06-1.39-.32-1.77-1.06-2.28h0c-.79-.5-2.47-.86-5-.84h-39L722,124.07H692.92l32.55-85.45.41-1.07H804c6.89,0,11.82,1.14,15.2,3.54h0c3.4,2.4,4.89,6.16,4.86,10.31h0c0,3.88-1.15,8.25-3,13.09h0l-2,5.29c-3.64,9.79-8.43,16.64-18.24,20.11h0a10.92,10.92,0,0,1,2,1.32h0a9.43,9.43,0,0,1,3.23,7.64h0a29,29,0,0,1-2.25,10h0L798,124.08Zm.17-24.92c2.79,0,5,.3,6.7,1.32h0a5.61,5.61,0,0,1,2.67,5.11h0a22.2,22.2,0,0,1-1.78,7.43h0l-3,7.75h22l5-13.07a25.91,25.91,0,0,0,2-8.83h0c0-2.65-.79-4-2-5.1h0a12.58,12.58,0,0,0-5.66-2.24h0l-1.93-.38,1.11-2.91.88-.19c12.26-2.75,16.56-8.46,20.85-19.43h0l2-5.29c1.77-4.64,2.77-8.7,2.77-11.92h0c0-3.49-1-5.84-3.48-7.62h0c-2.46-1.78-6.74-2.93-13.27-2.92H728.16l-30.44,79.89h22l8.23-21.61Z"/><path class="cls-1" d="M779.12,81.78H736.95a1.66,1.66,0,0,1-1.66-1.66h0a1.66,1.66,0,0,1,1.66-1.66h42.17c3.24,0,5.46-.64,7.15-1.82h0a11.94,11.94,0,0,0,4-5.84h0L791.37,68a11.22,11.22,0,0,0,.89-3.75h0c-.1-1.28-.25-1.45-1.38-2h0a18.65,18.65,0,0,0-6.36-.72H744.65A1.66,1.66,0,0,1,743,59.9h0a1.66,1.66,0,0,1,1.66-1.66h39.87c3.13,0,5.61.17,7.61,1h0a5.2,5.2,0,0,1,3.44,5.09h0a14.16,14.16,0,0,1-1.11,4.92h0l-1,2.75a15.21,15.21,0,0,1-5.24,7.38h0a15.28,15.28,0,0,1-9,2.43h0Z"/><path class="cls-1" d="M356.73,50a1.45,1.45,0,0,0-.83.26L321.65,74,287.22,50.23a1.45,1.45,0,0,0-.83-.26H256.14a1.45,1.45,0,0,0-1.39,1,1.51,1.51,0,0,0-.06.42,1.45,1.45,0,0,0,.64,1.2l49,33.18-53.19,35.63a1.45,1.45,0,0,0-.64,1.2,1.35,1.35,0,0,0,.06.42,1.44,1.44,0,0,0,1.38,1h30.91a1.41,1.41,0,0,0,.82-.26l37.94-26.26,37.61,26.26a1.45,1.45,0,0,0,.83.26h30.41a1.44,1.44,0,0,0,1.38-1,1.37,1.37,0,0,0,.06-.42,1.44,1.44,0,0,0-.64-1.2L338.44,85.8l49.19-33.18a1.45,1.45,0,0,0,.64-1.2,1.49,1.49,0,0,0-.06-.42,1.45,1.45,0,0,0-1.38-1Z"/><path class="cls-1" d="M118.92,50a1.46,1.46,0,0,0-1.12.53L72.48,105.93,28,50.51A1.44,1.44,0,0,0,26.85,50H1.45A1.45,1.45,0,0,0,.33,52.34L59,123.55a1.45,1.45,0,0,0,1.12.53H84.83a1.44,1.44,0,0,0,1.11-.52l59.49-71.21A1.45,1.45,0,0,0,144.32,50Z"/><path class="cls-1" d="M159.06,50a42.74,42.74,0,0,1-4.68-20.11c0-16.22,8.13-29.84,18-29.84H235c3.33,0,6.07,4.54,6.07,10.06S238.33,20.11,235,20.11H172.41c-3.33,0-5.88,4.54-5.88,9.73s2.36,10.22,5.88,10.22H235c3.33,0,6.07,4.47,6.07,9.9h0c0,5.43-2.74,9.9-6.07,9.9H172.41c-3.52,0-5.88,5-5.88,10.22s2.55,9.73,5.88,9.73H235c3.33,0,6.07,4.54,6.07,10.05S238.33,99.93,235,99.93H172.41c-9.89,0-18-13.62-18-29.84A42.75,42.75,0,0,1,159.06,50Z"/><path class="cls-1" d="M387.08,103.65a5,5,0,0,1,2.4.63,4.48,4.48,0,0,1,1.82,1.8,4.9,4.9,0,0,1,0,4.87,4.53,4.53,0,0,1-1.8,1.81,4.9,4.9,0,0,1-4.86,0,4.55,4.55,0,0,1-1.81-1.81,4.89,4.89,0,0,1,0-4.87,4.5,4.5,0,0,1,1.83-1.8A5,5,0,0,1,387.08,103.65Zm0,.81a4.16,4.16,0,0,0-2,.53,3.78,3.78,0,0,0-1.52,1.51,4.06,4.06,0,0,0,0,4.06,3.83,3.83,0,0,0,1.51,1.51,4.06,4.06,0,0,0,4,0,3.81,3.81,0,0,0,1.51-1.51,4.07,4.07,0,0,0,0-4.06,3.75,3.75,0,0,0-1.52-1.51A4.16,4.16,0,0,0,387.08,104.46Zm-2.14,6.77V106h1.8a4.42,4.42,0,0,1,1.34.14,1.3,1.3,0,0,1,.66.51,1.35,1.35,0,0,1,.25.77,1.4,1.4,0,0,1-.41,1,1.62,1.62,0,0,1-1.09.48,1.44,1.44,0,0,1,.45.28,6,6,0,0,1,.78,1l.64,1h-1l-.47-.83a4.24,4.24,0,0,0-.89-1.22,1.09,1.09,0,0,0-.68-.18h-.5v2.23Zm.85-3h1a1.65,1.65,0,0,0,1-.22.75.75,0,0,0,.14-1,.77.77,0,0,0-.36-.27,2.65,2.65,0,0,0-.85-.09h-1Z"/></g></g></g></svg>