<svg xmlns="http://www.w3.org/2000/svg" viewBox="0 0 571.43 123.89"><defs><style>.cls-1{fill:#fff;}.cls-2{fill:#0075c9;}</style></defs><title>iq-logo</title><g id="Layer_2" data-name="Layer 2"><g id="Homepage"><g id="Logos"><rect class="cls-1" x="425.01" y="49.84" width="146.42" height="74.04" rx="4.32" ry="4.32"/><path class="cls-1" d="M355.84,49.84a1.46,1.46,0,0,0-.83.26L320.84,73.86,286.5,50.1a1.46,1.46,0,0,0-.83-.26H255.5a1.45,1.45,0,0,0-1.38,1,1.54,1.54,0,0,0-.06.43,1.45,1.45,0,0,0,.63,1.19l48.9,33.1-53.06,35.54a1.45,1.45,0,0,0-.64,1.2,1.38,1.38,0,0,0,.06.42,1.44,1.44,0,0,0,1.38,1h30.84a1.4,1.4,0,0,0,.82-.26l37.85-26.2,37.51,26.2a1.45,1.45,0,0,0,.83.26h30.34a1.44,1.44,0,0,0,1.38-1,1.37,1.37,0,0,0,.06-.42,1.44,1.44,0,0,0-.64-1.2L337.59,85.58l49.06-33.1a1.45,1.45,0,0,0,.63-1.2,1.56,1.56,0,0,0-.06-.42,1.45,1.45,0,0,0-1.38-1Z"/><path class="cls-1" d="M118.62,49.84a1.46,1.46,0,0,0-1.12.53L72.3,105.67,27.91,50.38a1.44,1.44,0,0,0-1.13-.54H1.45A1.44,1.44,0,0,0,.33,52.2l58.51,71a1.44,1.44,0,0,0,1.12.53H84.62a1.44,1.44,0,0,0,1.11-.52l59.34-71A1.45,1.45,0,0,0,144,49.84Z"/><path class="cls-1" d="M158.66,49.83A42.61,42.61,0,0,1,154,29.77C154,13.59,162.11,0,172,0h62.44c3.33,0,6.06,4.53,6.06,10s-2.73,10-6.06,10H172c-3.32,0-5.86,4.53-5.86,9.71S168.46,40,172,40h62.44c3.33,0,6.06,4.46,6.06,9.88h0c0,5.42-2.73,9.88-6.06,9.88H172c-3.51,0-5.86,5-5.86,10.19s2.54,9.71,5.86,9.71h62.44c3.33,0,6.06,4.53,6.06,10s-2.73,10-6.06,10H172c-9.87,0-18-13.59-18-29.77a42.62,42.62,0,0,1,4.66-20.06Z"/><path class="cls-1" d="M386.11,102.62a5,5,0,0,1,2.39.63,4.48,4.48,0,0,1,1.82,1.8,4.86,4.86,0,0,1,0,4.86,4.45,4.45,0,0,1-1.8,1.8,4.87,4.87,0,0,1-4.84,0,4.5,4.5,0,0,1-1.8-1.8,4.87,4.87,0,0,1,0-4.86,4.47,4.47,0,0,1,1.82-1.8A5,5,0,0,1,386.11,102.62Zm0,.81a4.16,4.16,0,0,0-2,.52,3.76,3.76,0,0,0-1.52,1.5,4.13,4.13,0,0,0-.54,2,4.07,4.07,0,0,0,.53,2,3.84,3.84,0,0,0,1.51,1.5,4,4,0,0,0,4,0,3.82,3.82,0,0,0,1.5-1.5,4.05,4.05,0,0,0,0-4.05,3.72,3.72,0,0,0-1.52-1.5A4.14,4.14,0,0,0,386.11,103.43ZM384,110.18v-5.24h1.8a4.37,4.37,0,0,1,1.33.15,1.29,1.29,0,0,1,.66.51,1.35,1.35,0,0,1,.24.77,1.39,1.39,0,0,1-.41,1,1.6,1.6,0,0,1-1.09.48,1.43,1.43,0,0,1,.44.28,5.86,5.86,0,0,1,.78,1l.64,1h-1l-.46-.83a4.14,4.14,0,0,0-.88-1.22,1.08,1.08,0,0,0-.68-.18h-.5v2.22Zm.85-2.95h1a1.63,1.63,0,0,0,1-.22.71.71,0,0,0,.27-.58A.69.69,0,0,0,387,106a.77.77,0,0,0-.36-.28,2.7,2.7,0,0,0-.85-.09h-1Z"/><path class="cls-2" d="M553.18,102.95l-9.13,9-4.21-3.23-.6.31c-4.23,2.22-9.58,3.25-16.84,3.25h-25c-8.32,0-12.9-1.3-14.87-4.19-1.81-2.66-1.48-7,1-13.18l6.2-15.5c6-15.11,15.54-18.15,28.9-18.15h25c8.32,0,12.9,1.29,14.87,4.19,1.81,2.67,1.47,7-1,13.18l-6.2,15.51a29.79,29.79,0,0,1-2.09,4.38l-.46.77ZM534.94,72.48H516.72c-8.7,0-12.14,4.24-14.88,11.07l-2.24,5.6c-1.69,4.24-2.53,7.49-1.11,9.58,1.06,1.57,3.17,2.27,6.83,2.27h19.91c.45,0,.92,0,1.36,0l1.06,0h.71l.6-1.51-10.7-8.87,9.2-9.13L538.84,91l2.66-6.66c1.36-3.42,2.41-6.9.8-9.28C541.11,73.29,538.77,72.48,534.94,72.48Z"/><polygon class="cls-2" points="480.51 69.76 473.94 69.76 473.39 71.14 473.39 71.14 461.5 100.86 461.5 100.86 460.64 102.96 466.97 102.96 463.49 111.7 442.95 111.7 440.89 111.7 436.78 111.7 440.27 102.96 447.25 102.96 447.63 102 447.63 102 459.68 71.86 459.68 71.86 460.51 69.76 453.81 69.76 457.3 61.03 461.73 61.03 461.73 61.05 479.7 61.05 479.71 61.03 484 61.03 480.51 69.76"/></g></g></g></svg>