<svg xmlns="http://www.w3.org/2000/svg" viewBox="0 0 16 16"><defs><style>.cls-1{fill:#fff;}</style></defs><title>whiteContact</title><g id="Layer_2" data-name="Layer 2"><g id="Layer_1-2" data-name="Layer 1"><path class="cls-1" d="M7.69546,11.24574h.60871a.21988.21988,0,0,1,.21988.21988v.60891a.21988.21988,0,0,1-.21988.21988H7.69526a.21968.21968,0,0,1-.21968-.21968v-.60911A.21988.21988,0,0,1,7.69546,11.24574Z"/><path class="cls-1" d="M8,0a8,8,0,1,0,8,8A7.99993,7.99993,0,0,0,8,0Zm3.35352,11.65234a1.04507,1.04507,0,0,1-1.04517,1.04493H5.69165a1.04512,1.04512,0,0,1-1.04541-1.04493V4.34717A1.04511,1.04511,0,0,1,5.69165,3.30225h4.6167a1.04506,1.04506,0,0,1,1.04517,1.04492Z"/><path class="cls-1" d="M6.42292,4.5236H9.57729a.61439.61439,0,0,1,.61439.61439v4.7809a.61439.61439,0,0,1-.61439.61439H6.42274a.61457.61457,0,0,1-.61457-.61457V5.13836A.61476.61476,0,0,1,6.42292,4.5236Z"/></g></g></svg>