<svg xmlns="http://www.w3.org/2000/svg" viewBox="0 0 16 15.99977"><defs><style>.cls-1{fill:#fff;}</style></defs><title>whiteCurrencyIcon</title><g id="Layer_2" data-name="Layer 2"><g id="Layer_1-2" data-name="Layer 1"><path class="cls-1" d="M7.99988,0A7.99989,7.99989,0,1,0,16,7.99988,7.99977,7.99977,0,0,0,7.99988,0Zm2.947,12.99629A3.14781,3.14781,0,0,1,9.0252,14.149c-.12878,0-.12878.00094-.25662-.1276-.12784-.129-.12784-.129-.12784-.25663V11.4589A1.86622,1.86622,0,0,1,7.48781,10.69a1.6444,1.6444,0,0,1-.513-1.28171V8.89642A3.501,3.501,0,0,1,4.5411,7.87227,3.28125,3.28125,0,0,1,3.51578,5.43834,3.22684,3.22684,0,0,1,4.66871,2.87587,6.40923,6.40923,0,0,1,7.99988,1.85078a3.95833,3.95833,0,0,1,1.02438.25663.27549.27549,0,0,1,.25639.25615A5.297,5.297,0,0,1,8.6398,4.79749a2.03863,2.03863,0,0,1,.64085,1.28077.76861.76861,0,0,1-.12784.51231.77041.77041,0,0,1-.51207.12854c-.12785,0-.25545-.12854-.51208-.25662a.8754.8754,0,0,0-.64085-.38423.96928.96928,0,0,0-.51207.25662.666.666,0,0,0-.25663.51184,1.16266,1.16266,0,0,0,.38447.89654,3.74436,3.74436,0,0,0,1.15293.25662H9.53728a2.25587,2.25587,0,0,1,1.665.76846,2.1218,2.1218,0,0,1,.64085,1.5374A5.59794,5.59794,0,0,1,10.94683,12.99629Z"/></g></g></svg>